<?xml version="1.0" encoding="UTF-8" standalone="no"?>
<!-- Created with Inkscape (http://www.inkscape.org/) -->

<svg
   width="200mm"
   height="200mm"
   viewBox="0 0 200 200"
   version="1.1"
   id="svg5"
   inkscape:version="1.1.1 (3bf5ae0d25, 2021-09-20)"
   sodipodi:docname="exit_full_screen.svg"
   xmlns:inkscape="http://www.inkscape.org/namespaces/inkscape"
   xmlns:sodipodi="http://sodipodi.sourceforge.net/DTD/sodipodi-0.dtd"
   xmlns="http://www.w3.org/2000/svg"
   xmlns:svg="http://www.w3.org/2000/svg">
  <sodipodi:namedview
     id="namedview7"
     pagecolor="#ffffff"
     bordercolor="#999999"
     borderopacity="1"
     inkscape:pageshadow="0"
     inkscape:pageopacity="0"
     inkscape:pagecheckerboard="0"
     inkscape:document-units="mm"
     showgrid="true"
     inkscape:zoom="0.77682379"
     inkscape:cx="398.41725"
     inkscape:cy="355.93658"
     inkscape:window-width="1858"
     inkscape:window-height="1057"
     inkscape:window-x="54"
     inkscape:window-y="-8"
     inkscape:window-maximized="1"
     inkscape:current-layer="layer1">
    <inkscape:grid
       type="xygrid"
       id="grid824" />
  </sodipodi:namedview>
  <defs
     id="defs2" />
  <g
     inkscape:label="Layer 1"
     inkscape:groupmode="layer"
     id="layer1">
    <g
       id="g1357">
      <path
         style="fill:#d0d0d0;fill-opacity:1;stroke:#202020;stroke-width:18;stroke-linecap:butt;stroke-linejoin:round;stroke-miterlimit:4;stroke-dasharray:none;stroke-opacity:1"
         d="m 73.541665,10.041667 v 37.041666 c 0,0 0,26.458332 -26.458332,26.458332 -26.458333,0 -37.041666,0 -37.041666,0 V 41.791667 h 31.75 v -31.75 z"
         id="path855" />
      <path
         style="fill:#d0d0d0;fill-opacity:1;stroke:#202020;stroke-width:18;stroke-linecap:butt;stroke-linejoin:round;stroke-miterlimit:4;stroke-dasharray:none;stroke-opacity:1"
         d="m 126.45833,10.041667 v 37.041666 c 0,0 0,26.458332 26.45833,26.458332 26.45833,0 37.04167,0 37.04167,0 V 41.791667 h -31.75 v -31.75 z"
         id="path970" />
      <path
         style="fill:#d0d0d0;fill-opacity:1;stroke:#202020;stroke-width:18;stroke-linecap:butt;stroke-linejoin:round;stroke-miterlimit:4;stroke-dasharray:none;stroke-opacity:1"
         d="m 73.541665,189.95833 v -37.04167 c 0,0 0,-26.45833 -26.458332,-26.45833 -26.458333,0 -37.041666,0 -37.041666,0 v 31.75 h 31.75 v 31.75 z"
         id="path1092" />
      <path
         style="fill:#d0d0d0;fill-opacity:1;stroke:#202020;stroke-width:18;stroke-linecap:butt;stroke-linejoin:round;stroke-miterlimit:4;stroke-dasharray:none;stroke-opacity:1"
         d="m 189.95833,126.45833 h -37.04167 c 0,0 -26.45833,0 -26.45833,26.45833 0,26.45833 0,37.04167 0,37.04167 h 31.75 v -31.75 h 31.75 z"
         id="path1207" />
    </g>
  </g>
</svg>
