<?xml version="1.0" encoding="UTF-8" standalone="no"?>
<!-- Created with Inkscape (http://www.inkscape.org/) -->

<svg
   width="200mm"
   height="200mm"
   viewBox="0 0 200 200"
   version="1.1"
   id="svg5"
   inkscape:version="1.1.1 (3bf5ae0d25, 2021-09-20)"
   sodipodi:docname="full_screen.svg"
   xmlns:inkscape="http://www.inkscape.org/namespaces/inkscape"
   xmlns:sodipodi="http://sodipodi.sourceforge.net/DTD/sodipodi-0.dtd"
   xmlns="http://www.w3.org/2000/svg"
   xmlns:svg="http://www.w3.org/2000/svg">
  <sodipodi:namedview
     id="namedview7"
     pagecolor="#ffffff"
     bordercolor="#999999"
     borderopacity="1"
     inkscape:pageshadow="0"
     inkscape:pageopacity="0"
     inkscape:pagecheckerboard="0"
     inkscape:document-units="mm"
     showgrid="true"
     inkscape:zoom="0.77682379"
     inkscape:cx="290.28462"
     inkscape:cy="372.67139"
     inkscape:window-width="1858"
     inkscape:window-height="1057"
     inkscape:window-x="54"
     inkscape:window-y="-8"
     inkscape:window-maximized="1"
     inkscape:current-layer="layer1">
    <inkscape:grid
       type="xygrid"
       id="grid824" />
  </sodipodi:namedview>
  <defs
     id="defs2" />
  <g
     inkscape:label="Layer 1"
     inkscape:groupmode="layer"
     id="layer1">
    <g
       id="g1276">
      <path
         style="fill:#d0d0d0;fill-opacity:1;stroke:#202020;stroke-width:18;stroke-linecap:round;stroke-linejoin:round;stroke-miterlimit:4;stroke-dasharray:none;stroke-opacity:1"
         d="m 189.95833,126.45851 v 37.04166 c 0,0 0,26.45834 -26.45834,26.45834 -26.45833,0 -37.04166,0 -37.04166,0 v -31.75 h 31.75 v -31.75 z"
         id="path6996" />
      <path
         style="fill:#d0d0d0;fill-opacity:1;stroke:#202020;stroke-width:18;stroke-linecap:round;stroke-linejoin:round;stroke-miterlimit:4;stroke-dasharray:none;stroke-opacity:1"
         d="M 189.95833,73.54184 V 36.500174 c 0,0 0,-26.458333 -26.45834,-26.458333 -26.45833,0 -37.04166,0 -37.04166,0 v 31.75 h 31.75 V 73.54184 h 31.75"
         id="path7245" />
      <path
         style="fill:#d0d0d0;fill-opacity:1;stroke:#202020;stroke-width:18;stroke-linecap:round;stroke-linejoin:round;stroke-miterlimit:4;stroke-dasharray:none;stroke-opacity:1"
         d="M 73.541665,10.041841 H 36.5 c 0,0 -26.458333,0 -26.458333,26.458333 0,26.458333 0,37.041666 0,37.041666 H 41.791666 V 41.791841 h 31.749999 z"
         id="path7665" />
      <path
         style="fill:#d0d0d0;fill-opacity:1;stroke:#202020;stroke-width:18;stroke-linecap:round;stroke-linejoin:round;stroke-miterlimit:4;stroke-dasharray:none;stroke-opacity:1"
         d="m 10.041667,126.45851 v 37.04166 c 0,0 0,26.45834 26.458333,26.45834 26.458333,0 37.041665,0 37.041665,0 v -31.75 H 41.791667 v -31.75 z"
         id="path7924" />
    </g>
  </g>
</svg>
